<svg xmlns="http://www.w3.org/2000/svg"  viewBox="0 0 48 48" width="48px" height="48px" baseProfile="basic"><path fill="#373837" d="M34.523,42.65c0.238,0.241,0.538,0.438,0.874,0.479c0.336,0.041,0.708-0.104,0.866-0.403	c0.114-0.214,0.106-0.477,0.028-0.707s-0.22-0.432-0.369-0.623c-0.252-0.323-0.534-0.63-0.878-0.853	c-0.278-0.18-0.651-0.343-0.991-0.321c-0.311,0.02-0.265,0.438-0.259,0.69C33.811,41.554,34.07,42.192,34.523,42.65z"/><polygon fill="#74cccf" points="35.101,16.337 38.067,19.438 39.011,23.348 37.966,24.326 37.225,29.416 36.127,29.048 33.845,32.411 30.483,35.652 29.236,36.393 30.348,38.213 32.303,39.697 33.972,40.135 34.14,43.219 22.596,43.522 20.287,43.438 20.708,41.567 21.82,40.522 20.472,39.713 18.837,37.86 30.652,19.506 32.303,16.472"/><path fill="none" stroke="#010101" stroke-linecap="round" stroke-linejoin="round" stroke-miterlimit="10" d="M28.798,36.848	c0.644,0.805,1.201,1.489,1.972,2.174c0.428,0.38,1.173,0.824,1.719,0.994c0.448,0.14,1.055,0.068,1.517,0.152	c0.822,0.15,1.23,0.369,1.738,1.033c0.507,0.663,0.537,1.158,0.537,2.153c-1.347,0-2.716,0.015-4.044,0.051"/><polygon fill="#74cccf" points="26.978,5.416 29.135,4.657 32.371,4.64 33.685,5.213 34.865,5.787 37.393,11.011 37.461,15.528 35.169,17.416 33.146,18.258 28.798,18.09 26.303,16.978 24.551,15.831 23.202,13.742 24.854,8.517"/><path fill="#d6e5e5" d="M27.7,34.233c2.646-1.539,4.864-3.929,5.831-6.833c0.966-2.904,0.481-6.274-1.453-8.646	c-1.335-0.3-2.67-0.601-4.005-0.901c-0.628-0.141-1.265-0.286-1.828-0.597c-0.976-0.539-1.761-1.244-2.759-1.742	c-1.903,0.28-3.605,1.364-5.012,2.675c-1.407,1.311-2.571,2.857-3.84,4.302c-0.342,0.39-0.694,0.774-0.975,1.21	c-0.305,0.473-0.521,0.996-0.768,1.501c-0.574,1.173-1.319,2.256-1.884,3.433c-0.358,0.746-0.641,1.525-0.923,2.302	c-0.334,0.919-0.668,1.838-1.001,2.758c-0.393,1.081-0.786,2.164-1.067,3.279c-0.222,0.882-0.373,1.781-0.524,2.678	c-0.214,1.274-0.428,2.547-0.642,3.821c2.393-0.645,4.858-1.054,7.185-1.908c1.144-0.42,2.291-0.841,3.391-1.366	c1.046-0.499,2.045-1.09,3.043-1.68C22.92,37.07,25.237,35.665,27.7,34.233z"/><path fill="none" stroke="#010101" stroke-linecap="round" stroke-linejoin="round" stroke-miterlimit="10" d="M31.829,18.382	c1.851,1.986,2.672,4.884,2.139,7.546c-0.389,1.938-1.43,3.678-2.553,5.305c-0.54,0.783-1.633,1.496-2.402,2.056	c-6.613,4.818-14.06,8.924-22.115,10.359c0.341-3.938,1.276-7.824,2.762-11.486c0.727-1.791,1.584-3.527,2.442-5.26	c0.546-1.103,1.095-2.209,1.763-3.244c0.67-1.038,1.456-1.995,2.239-2.95c0.984-1.199,1.977-2.407,3.177-3.39	c1.2-0.983,2.708-1.891,4.983-1.992"/><path fill="#d6e5e5" d="M40.015,8.604c-0.29,0.07-0.597,0.071-0.888,0.003c0.448,0.921,0.806,1.887,1.067,2.878	c-0.459,0.055-0.871,0.001-1.329-0.062c0.012,0.534,0.024,1.072-0.079,1.596c-0.103,0.524-0.331,1.039-0.729,1.394	c-0.37,0.33-0.855,0.497-1.331,0.641c-0.62,0.187-1.261,0.349-1.907,0.305c-0.721-0.049-1.399-0.35-2.046-0.673	c-0.259-0.129-0.519-0.265-0.735-0.458c-0.461-0.411-0.687-1.036-1.106-1.49c-1.108,1.561-2.927,2.668-4.842,2.667	c-0.945,0-1.92-0.285-2.598-0.944c-0.759-0.738-1.051-1.851-1.037-2.909c-0.344,0.034-0.69,0.042-1.035,0.026	c0.001-1.088,0.377-2.171,1.048-3.027c-0.385-0.018-0.769-0.036-1.154-0.054c0.819-1.249,1.957-2.282,3.391-2.701	s3.066-0.211,4.273,0.669c1.001,0.73,1.67,1.899,1.789,3.132c0.058-0.375,0.182-0.739,0.342-1.083	c0.631-1.358,1.792-2.551,3.26-2.85c0.47-0.096,0.953-0.079,1.432-0.079C38.101,5.586,39.685,7.542,40.015,8.604z"/><path fill="#f3ad20" d="M29.241,11.076c-0.206-0.523-0.547-1.003-1.014-1.316c-0.467-0.313-1.066-0.446-1.609-0.298	c-0.187,0.051-0.364,0.133-0.531,0.23c-0.311,0.179-0.591,0.411-0.827,0.681c0.255,0.342,0.495,0.765,0.82,1.04	c0.326,0.275,0.719,0.485,1.143,0.531c0.262,0.029,0.529-0.006,0.784-0.074C28.355,11.778,29,11.343,29.241,11.076z"/><path fill="#f3ad20" d="M35.937,10.549c-0.44-0.56-1.231-0.78-1.928-0.63s-1.294,0.628-1.695,1.217	c0.223,0.526,0.713,0.886,1.26,1.052s1.165,0.076,1.642-0.238C35.607,11.693,35.899,11.014,35.937,10.549z"/><path fill="none" stroke="#010101" stroke-linecap="round" stroke-linejoin="round" stroke-miterlimit="10" d="M40.015,8.604	c-0.29,0.07-0.597,0.071-0.888,0.003c0.448,0.921,0.806,1.887,1.067,2.878c-0.459,0.055-0.871,0.001-1.329-0.062	c0.012,0.534,0.024,1.072-0.079,1.596c-0.103,0.524-0.331,1.039-0.729,1.394c-0.37,0.33-0.855,0.497-1.331,0.641	c-0.62,0.187-1.261,0.349-1.907,0.305c-0.721-0.049-1.399-0.35-2.046-0.673c-0.259-0.129-0.519-0.265-0.735-0.458	c-0.461-0.411-0.687-1.036-1.106-1.49c-1.108,1.561-2.927,2.668-4.842,2.667c-0.945,0-1.92-0.285-2.598-0.944	c-0.759-0.738-1.051-1.851-1.037-2.909c-0.344,0.034-0.69,0.042-1.035,0.026c0.001-1.088,0.377-2.171,1.048-3.027	c-0.385-0.018-0.769-0.036-1.154-0.054c0.819-1.249,1.957-2.282,3.391-2.701s3.066-0.211,4.273,0.669	c1.001,0.73,1.67,1.899,1.789,3.132c0.058-0.375,0.182-0.739,0.342-1.083c0.631-1.358,1.792-2.551,3.26-2.85	c0.47-0.096,0.953-0.079,1.432-0.079C38.101,5.586,39.685,7.542,40.015,8.604z"/><path fill="#373837" stroke="#010101" stroke-linecap="round" stroke-linejoin="round" stroke-miterlimit="10" d="M29.976,13.647	c-0.062-0.131-0.122-0.263-0.158-0.404c-0.107-0.417,0.026-0.897,0.36-1.168c0.334-0.272,0.86-0.293,1.191-0.018	c0.274,0.228,0.383,0.613,0.345,0.967c-0.038,0.355-0.203,0.683-0.398,0.982c-0.159,0.242-0.39,0.713-0.628,0.863	C30.377,14.564,30.163,14.038,29.976,13.647z"/><path fill="none" stroke="#010101" stroke-linecap="round" stroke-linejoin="round" stroke-miterlimit="10" d="M26.691,5.534	c0.714-0.37,1.649-0.756,2.444-0.876c0.791-0.119,1.572-0.13,2.369-0.056c1.043,0.098,2.188,0.248,2.963,0.908"/><path fill="none" stroke="#010101" stroke-linecap="round" stroke-linejoin="round" stroke-miterlimit="10" d="M23.843,14.77	c0.809,1.782,2.25,2.516,4.096,3.169c1.382,0.489,2.808,0.623,4.736,0.287c1.16-0.203,2.125-0.487,3.101-1.146	c0.976-0.659,1.752-1.245,1.921-2.41"/><path fill="none" stroke="#010101" stroke-linecap="round" stroke-linejoin="round" stroke-miterlimit="10" d="M29.241,11.076	c-0.206-0.523-0.547-1.003-1.014-1.316c-0.467-0.313-1.066-0.446-1.609-0.298c-0.187,0.051-0.364,0.133-0.531,0.23	c-0.311,0.179-0.591,0.411-0.827,0.681c0.255,0.342,0.495,0.765,0.82,1.04c0.326,0.275,0.719,0.485,1.143,0.531	c0.262,0.029,0.529-0.006,0.784-0.074C28.355,11.778,29,11.343,29.241,11.076z"/><path fill="#373837" d="M29.816,42.852c0.173,0.2,0.383,0.378,0.635,0.457c0.224,0.07,0.465,0.057,0.698,0.026	c0.244-0.032,0.486-0.082,0.723-0.15c0.078-0.022,0.158-0.048,0.215-0.106c0.094-0.095,0.096-0.248,0.067-0.378	c-0.047-0.217-0.16-0.414-0.281-0.6c-0.299-0.459-0.67-0.882-1.141-1.16c-0.336-0.198-1.428-0.634-1.545,0.006	C29.071,41.592,29.405,42.375,29.816,42.852z"/><path fill="none" stroke="#010101" stroke-linecap="round" stroke-linejoin="round" stroke-miterlimit="10" d="M35.937,10.549	c-0.44-0.56-1.231-0.78-1.928-0.63s-1.294,0.628-1.695,1.217c0.223,0.526,0.713,0.886,1.26,1.052s1.165,0.076,1.642-0.238	C35.607,11.693,35.899,11.014,35.937,10.549z"/><path fill="none" stroke="#010101" stroke-linecap="round" stroke-linejoin="round" stroke-miterlimit="10" d="M36.093,16.947	c1.874,1.823,2.922,4.463,2.81,7.075c-0.27,0-0.565,0.153-0.835,0.153c0.088,1.959-0.338,4.013-1.112,5.815	c-0.284-0.307-0.564-0.618-0.828-0.941c-0.521,1.282-1.363,2.329-2.283,3.363c-2.121,2.383-4.666,4.386-7.481,5.887	c0.705,0.676,1.298,1.489,1.986,2.183c0.322,0.016,0.619,0.127,0.941,0.148c0.687,0.044,1.417,0.115,1.957,0.541	c0.654,0.516,0.852,1.407,1.008,2.226c-2.244,0.057-4.51,0.146-6.755,0.202c-0.464,0.012-0.927,0.023-1.391,0.01	c-1.193-0.035-2.396-0.236-3.57-0.026c-0.065-0.321-0.105-0.638-0.032-0.957c0.042-0.183,0.106-0.361,0.181-0.534	c0.134-0.308,0.304-0.606,0.544-0.841c0.24-0.235,0.555-0.405,0.89-0.425c-0.812-0.419-1.534-0.933-2.2-1.559"/><path fill="none" stroke="#010101" stroke-linecap="round" stroke-linejoin="round" stroke-miterlimit="10" d="M29.32,41.011	c0.065,0.742,0.327,1.466,0.751,2.078"/><path fill="none" stroke="#010101" stroke-linecap="round" stroke-linejoin="round" stroke-miterlimit="10" d="M33.795,40.553	c-0.142,1.017,0.363,2.096,1.234,2.64"/><path fill="#373837" stroke="#010101" stroke-linecap="round" stroke-linejoin="round" stroke-miterlimit="10" d="M16.405,26.244	c0.515,0.475,1.23,0.727,1.929,0.681c-0.824,0.64-1.88,0.903-2.917,1.015c-0.055,0.006-0.114,0.011-0.163-0.015	c-0.041-0.021-0.069-0.061-0.093-0.101c-0.231-0.382-0.242-0.855-0.204-1.3c0.056-0.653,0.169-1.462,0.511-2.027	c0.198,0.178,0.197,0.592,0.315,0.865C15.926,25.694,16.139,25.998,16.405,26.244z"/><path fill="#373837" stroke="#010101" stroke-linecap="round" stroke-linejoin="round" stroke-miterlimit="10" d="M21.003,30.899	c-0.476-0.046-0.763-0.046-1.21-0.216s-0.862-0.478-1.054-0.916c-0.183-0.418-0.147-0.908-0.336-1.324	c-0.625,1.052-0.855,2.333-0.633,3.537C18.92,31.984,19.955,31.374,21.003,30.899z"/><path fill="#373837" stroke="#010101" stroke-linecap="round" stroke-linejoin="round" stroke-miterlimit="10" d="M25.073,33.834	c-0.583,0.029-1.173-0.093-1.696-0.351c-0.213-0.105-0.418-0.234-0.583-0.405c-0.197-0.204-0.33-0.462-0.431-0.727	c-0.104-0.272-0.005-0.076-0.045-0.365c-0.489,1.062-0.897,1.772-0.779,2.935c0.611,0.021,1.145,0.006,1.738-0.143	C23.87,34.629,24.621,34.245,25.073,33.834z"/><path fill="#373837" stroke="#010101" stroke-linecap="round" stroke-linejoin="round" stroke-miterlimit="10" d="M13.572,29.2	c-0.109,0.578-0.133,1.211,0.164,1.72c0.226,0.386,0.618,0.657,1.04,0.805s0.876,0.184,1.323,0.186	c-0.962,0.515-2.043,0.734-3.134,0.68C12.331,30.191,13.339,29.355,13.572,29.2z"/><path fill="#373837" stroke="#010101" stroke-linecap="round" stroke-linejoin="round" stroke-miterlimit="10" d="M12.599,34.083	c-0.057,0.445-0.068,0.9,0.026,1.338c0.094,0.438,0.298,0.861,0.626,1.167c0.445,0.417,1.075,0.583,1.685,0.61	c-0.463,0.322-1.09,0.518-1.649,0.596c-0.559,0.078-1.126,0.061-1.689,0.019c-0.069-0.679,0.031-1.353,0.144-2.026	S12.137,34.586,12.599,34.083z"/><path fill="#373837" stroke="#010101" stroke-linecap="round" stroke-linejoin="round" stroke-miterlimit="10" d="M20.063,35.818	c-0.434-0.063-0.872-0.126-1.286-0.273s-0.806-0.386-1.064-0.741c-0.332-0.456-0.381-1.066-0.447-1.626	c-0.762,1.045-0.992,2.459-0.6,3.691c0.645-0.067,1.253-0.096,1.89-0.219C19.141,36.537,19.694,36.284,20.063,35.818z"/><path fill="#373837" stroke="#010101" stroke-linecap="round" stroke-linejoin="round" stroke-miterlimit="10" d="M28.314,9.993	c-0.119,0.26-0.26,0.295-0.527,0.395c-0.298,0.111-0.586,0.107-0.792-0.135c-0.207-0.242-0.378-0.475-0.349-0.792l0.922,0.101	L28.314,9.993z"/><path fill="#010101" stroke="#010101" stroke-linecap="round" stroke-linejoin="round" stroke-miterlimit="10" d="M33.264,10.245	c0.047,0.28,0.148,0.101,0.368,0.281s0.549,0.24,0.795,0.098c0.133-0.077,0.23-0.203,0.304-0.337	c0.102-0.185,0.185,0.067,0.205-0.143"/></svg>